<svg width="64" height="48" viewBox="0 0 64 48" fill="none" xmlns="http://www.w3.org/2000/svg">
<path d="M0.853553 11.1464L11.8536 0.146447C11.9473 0.0526784 12.0745 0 12.2071 0H62.8981C63.3277 0 63.5573 0.50596 63.2744 0.829252L53.6494 11.8293C53.5545 11.9378 53.4173 12 53.2731 12H1.20711C0.761654 12 0.538571 11.4614 0.853553 11.1464Z" fill="#A1A1A1"/>
<path d="M63.1464 29.1464L52.1464 18.1464C52.0527 18.0527 51.9255 18 51.7929 18H1.10188C0.672306 18 0.442715 18.506 0.725594 18.8293L10.3506 29.8293C10.4455 29.9378 10.5827 30 10.7269 30H62.7929C63.2383 30 63.4614 29.4614 63.1464 29.1464Z" fill="#A1A1A1"/>
<path d="M0.853553 47.1464L11.8536 36.1464C11.9473 36.0527 12.0745 36 12.2071 36H62.8981C63.3277 36 63.5573 36.506 63.2744 36.8293L53.6494 47.8293C53.5545 47.9378 53.4173 48 53.2731 48H1.20711C0.761654 48 0.538571 47.4614 0.853553 47.1464Z" fill="#A1A1A1"/>
</svg>
